<mxfile host="Electron" modified="2023-07-30T06:52:10.286Z" agent="Mozilla/5.0 (X11; Linux x86_64) AppleWebKit/537.36 (KHTML, like Gecko) draw.io/21.6.1 Chrome/112.0.5615.204 Electron/24.6.1 Safari/537.36" etag="19-w-Y8d8O-v8x9Sj47z" version="21.6.1" type="device">
  <diagram name="Page-1" id="lv2RBA-2qfxnkMvO_x3A">
    <mxGraphModel dx="139" dy="626" grid="1" gridSize="10" guides="1" tooltips="1" connect="1" arrows="1" fold="1" page="1" pageScale="1" pageWidth="850" pageHeight="1100" math="0" shadow="0">
      <root>
        <mxCell id="0" />
        <mxCell id="1" parent="0" />
        <mxCell id="c65OvQi4uEtFYJh8bwgA-66" value="" style="group" vertex="1" connectable="0" parent="1">
          <mxGeometry x="1019.385" y="290" width="500" height="40" as="geometry" />
        </mxCell>
        <mxCell id="EwrT_p0m1SvkqEXyKUbj-6" value="&lt;b&gt;&amp;nbsp; Legend&lt;/b&gt;" style="text;html=1;align=left;verticalAlign=middle;whiteSpace=wrap;rounded=1;fontFamily=Courier New;perimeterSpacing=6;shadow=0;fillColor=#FAE5C7;fontColor=#143642;strokeColor=#0F8B8D;labelBackgroundColor=none;container=0;" parent="c65OvQi4uEtFYJh8bwgA-66" vertex="1">
          <mxGeometry width="500" height="40" as="geometry" />
        </mxCell>
        <mxCell id="EwrT_p0m1SvkqEXyKUbj-25" value="String" style="ellipse;whiteSpace=wrap;html=1;rounded=1;labelBackgroundColor=none;strokeColor=#0F8B8D;fontFamily=Helvetica;fontSize=12;fontColor=default;fillColor=default;container=0;" parent="c65OvQi4uEtFYJh8bwgA-66" vertex="1">
          <mxGeometry x="308.3299999999997" y="5" width="71.66666666666667" height="30" as="geometry" />
        </mxCell>
        <mxCell id="EwrT_p0m1SvkqEXyKUbj-26" value="variable" style="shape=hexagon;perimeter=hexagonPerimeter2;whiteSpace=wrap;html=1;fixedSize=1;strokeColor=#0F8B8D;fontColor=#143642;fillColor=default;container=0;" parent="c65OvQi4uEtFYJh8bwgA-66" vertex="1">
          <mxGeometry x="189.99555555555548" y="5" width="107.5" height="30" as="geometry" />
        </mxCell>
        <mxCell id="EwrT_p0m1SvkqEXyKUbj-27" value="&lt;p&gt;keyword&lt;/p&gt;" style="rounded=1;whiteSpace=wrap;html=1;arcSize=50;fontStyle=0;fillColor=#FAE5C7;strokeColor=#0F8B8D;labelBackgroundColor=none;fontColor=#143642;container=0;" parent="c65OvQi4uEtFYJh8bwgA-66" vertex="1">
          <mxGeometry x="70.00111111111119" y="5" width="107.5" height="30" as="geometry" />
        </mxCell>
        <mxCell id="c65OvQi4uEtFYJh8bwgA-65" value="Go to" style="rounded=1;whiteSpace=wrap;html=1;strokeColor=#0F8B8D;fontFamily=Helvetica;fontSize=12;fontColor=#143642;fillColor=#FAE5C7;arcSize=0;fontStyle=0;shadow=0;labelBackgroundColor=none;" vertex="1" parent="c65OvQi4uEtFYJh8bwgA-66">
          <mxGeometry x="390" y="5" width="95" height="30" as="geometry" />
        </mxCell>
        <mxCell id="c65OvQi4uEtFYJh8bwgA-67" value="" style="group" vertex="1" connectable="0" parent="1">
          <mxGeometry x="990" y="230" width="558.77" height="40" as="geometry" />
        </mxCell>
        <mxCell id="EwrT_p0m1SvkqEXyKUbj-39" value="Gateway" style="text;html=1;strokeColor=none;fillColor=none;align=left;verticalAlign=middle;whiteSpace=wrap;rounded=0;fontSize=12;fontFamily=Helvetica;fontColor=#383838;" parent="c65OvQi4uEtFYJh8bwgA-67" vertex="1">
          <mxGeometry width="100" height="20" as="geometry" />
        </mxCell>
        <mxCell id="EwrT_p0m1SvkqEXyKUbj-44" value="" style="endArrow=blockThin;html=1;rounded=1;labelBackgroundColor=none;strokeColor=#A8201A;strokeWidth=2;fontFamily=Helvetica;fontSize=12;fontColor=default;shape=connector;endFill=1;align=left;" parent="c65OvQi4uEtFYJh8bwgA-67" edge="1">
          <mxGeometry width="50" height="50" relative="1" as="geometry">
            <mxPoint y="24.75999999999999" as="sourcePoint" />
            <mxPoint x="100" y="24.75999999999999" as="targetPoint" />
          </mxGeometry>
        </mxCell>
        <mxCell id="EwrT_p0m1SvkqEXyKUbj-51" style="edgeStyle=orthogonalEdgeStyle;shape=connector;rounded=1;orthogonalLoop=1;jettySize=auto;html=1;labelBackgroundColor=none;strokeColor=#A8201A;strokeWidth=2;fontFamily=Helvetica;fontSize=12;fontColor=default;endArrow=blockThin;endFill=1;" parent="c65OvQi4uEtFYJh8bwgA-67" edge="1">
          <mxGeometry relative="1" as="geometry">
            <mxPoint x="558.77" y="24.799999999999955" as="targetPoint" />
            <mxPoint x="260" y="25" as="sourcePoint" />
          </mxGeometry>
        </mxCell>
        <mxCell id="c65OvQi4uEtFYJh8bwgA-61" value="Locations" style="rounded=1;whiteSpace=wrap;html=1;strokeColor=#0F8B8D;fontFamily=Helvetica;fontSize=12;fontColor=#143642;fillColor=#FAE5C7;arcSize=0;fontStyle=0;shadow=0;labelBackgroundColor=none;" vertex="1" parent="c65OvQi4uEtFYJh8bwgA-67">
          <mxGeometry x="100" y="10" width="95" height="30" as="geometry" />
        </mxCell>
        <mxCell id="c65OvQi4uEtFYJh8bwgA-62" value="Components" style="rounded=1;whiteSpace=wrap;html=1;strokeColor=#0F8B8D;fontFamily=Helvetica;fontSize=12;fontColor=#143642;fillColor=#FAE5C7;arcSize=0;fontStyle=0;shadow=0;labelBackgroundColor=none;" vertex="1" parent="c65OvQi4uEtFYJh8bwgA-67">
          <mxGeometry x="220" y="10" width="95" height="30" as="geometry" />
        </mxCell>
        <mxCell id="c65OvQi4uEtFYJh8bwgA-64" value="" style="edgeStyle=orthogonalEdgeStyle;shape=connector;rounded=1;orthogonalLoop=1;jettySize=auto;html=1;labelBackgroundColor=none;strokeColor=#A8201A;strokeWidth=2;fontFamily=Helvetica;fontSize=12;fontColor=default;endArrow=none;endFill=0;" edge="1" parent="c65OvQi4uEtFYJh8bwgA-67" source="c65OvQi4uEtFYJh8bwgA-61" target="c65OvQi4uEtFYJh8bwgA-62">
          <mxGeometry relative="1" as="geometry" />
        </mxCell>
      </root>
    </mxGraphModel>
  </diagram>
</mxfile>
